<svg id="Warstwa_1" data-name="Warstwa 1" xmlns="http://www.w3.org/2000/svg" viewBox="0 0 330.77 154.13"><defs><style>.cls-1{fill:#1d1d1b;}.cls-2{fill:#009fe3;}.cls-3{fill:#fff;}</style></defs><circle class="cls-1" cx="77.06" cy="77.06" r="77.06"/><path class="cls-2" d="M86.07,155.28A4.9,4.9,0,0,1,84,145.94l33.47-15.64V96.86a4.89,4.89,0,0,1,2.62-4.34l36.29-19.07a4.9,4.9,0,0,1,4.56,8.68L127.26,99.82v33.6a4.91,4.91,0,0,1-2.82,4.44l-36.29,17A5,5,0,0,1,86.07,155.28Z" transform="translate(-45.3 -37.02)"/><path class="cls-3" d="M158.65,72.89a4.9,4.9,0,0,0-4.9,4.9v60.75L89.54,74.33l0,0a4.6,4.6,0,0,0-.73-.59c-.12-.08-.25-.14-.38-.21a3.45,3.45,0,0,0-.47-.24,3.86,3.86,0,0,0-.48-.16c-.14,0-.28-.09-.43-.12a5.75,5.75,0,0,0-.92-.1H86a5.63,5.63,0,0,0-.92.1c-.15,0-.29.08-.43.12a4.66,4.66,0,0,0-.49.16,4,4,0,0,0-.46.24,2.82,2.82,0,0,0-.38.21,4.52,4.52,0,0,0-.72.59l0,0h0a6,6,0,0,0-.6.73c-.08.13-.14.26-.21.39s-.17.3-.24.46a2.88,2.88,0,0,0-.15.5,3.24,3.24,0,0,0-.13.41,5.2,5.2,0,0,0-.09,1h0v72.59a4.9,4.9,0,0,0,9.8,0V89.63l64.22,64.21a4.9,4.9,0,0,0,8.37-3.46V77.79A4.9,4.9,0,0,0,158.65,72.89Z" transform="translate(-45.3 -37.02)"/><path class="cls-1" d="M245.24,118.44V104.09a1.1,1.1,0,0,1,1.25-1.26h2.61a1.11,1.11,0,0,1,1.26,1.26v20.16a1.11,1.11,0,0,1-1.26,1.26h-4.93a1.26,1.26,0,0,1-1.29-.94l-4-14.67v14.35a1.11,1.11,0,0,1-1.26,1.26H235a1.11,1.11,0,0,1-1.26-1.26V104.09a1.11,1.11,0,0,1,1.26-1.26h4.86a1.29,1.29,0,0,1,1.36.94Z" transform="translate(-45.3 -37.02)"/><path class="cls-1" d="M269.86,120.39a4.83,4.83,0,0,1-5.08,5.12H258.9a4.87,4.87,0,0,1-5.08-5.12V107.92a4.9,4.9,0,0,1,5.11-5.09h5.85a4.88,4.88,0,0,1,5.08,5.09Zm-5.52-11a1.83,1.83,0,0,0-2-2h-1a1.81,1.81,0,0,0-2,2v9.48a1.85,1.85,0,0,0,2,2h1a1.86,1.86,0,0,0,2-2Z" transform="translate(-45.3 -37.02)"/><path class="cls-1" d="M285.35,111.56l-2,12.91a1.1,1.1,0,0,1-1.1,1h-6.12a1.16,1.16,0,0,1-1.13-1.13L272.41,104a.93.93,0,0,1,1-1.13h3.2c.79,0,1,.5,1.13,1.13l2,16.37,2.64-16.46a1.18,1.18,0,0,1,1.1-1h3.64a1.15,1.15,0,0,1,1.1,1.07l2.64,16.39,2-16.33a1.15,1.15,0,0,1,1.16-1.13h3.21a1,1,0,0,1,1,1.13l-2.6,20.42a1.2,1.2,0,0,1-1.17,1.13H288.4a1.12,1.12,0,0,1-1.1-1Z" transform="translate(-45.3 -37.02)"/><path class="cls-1" d="M312.31,102.83a1.14,1.14,0,0,1,1.16.94L318,124.16a1.07,1.07,0,0,1-1.07,1.35h-3.33a1.08,1.08,0,0,1-1.13-.94l-.56-2.67a.58.58,0,0,0-.6-.51h-4.9a.51.51,0,0,0-.53.47l-.57,2.71a1,1,0,0,1-1.1.94h-2.85a1.11,1.11,0,0,1-1.17-1.32l4.56-20.42a1.1,1.1,0,0,1,1.13-.94Zm-3.4,4.59L307,116.84h3.92Z" transform="translate(-45.3 -37.02)"/><path class="cls-1" d="M233.71,136.5a1.12,1.12,0,0,1,1.19-1.2H238a1.15,1.15,0,0,1,1.23,1.2v14.88a1.85,1.85,0,0,0,2,2.05h1a1.86,1.86,0,0,0,2-2.05V136.5a1.12,1.12,0,0,1,1.2-1.2h3.14a1.12,1.12,0,0,1,1.19,1.2v16.36a4.84,4.84,0,0,1-5.09,5.12H238.8a4.87,4.87,0,0,1-5.09-5.12Z" transform="translate(-45.3 -37.02)"/><path class="cls-1" d="M264.71,135.3a1.15,1.15,0,0,1,1.17.95l4.55,20.38a1.07,1.07,0,0,1-1.07,1.35H266a1.08,1.08,0,0,1-1.13-.94l-.56-2.67a.58.58,0,0,0-.6-.5h-4.9a.51.51,0,0,0-.53.47l-.57,2.7a1,1,0,0,1-1.1.94h-2.86a1.11,1.11,0,0,1-1.16-1.32l4.56-20.41a1.1,1.1,0,0,1,1.13-.95Zm-3.39,4.59-1.95,9.42h3.93Z" transform="translate(-45.3 -37.02)"/><path class="cls-1" d="M273.26,136.56a1.11,1.11,0,0,1,1.26-1.26h8.76a4.88,4.88,0,0,1,5.09,5.06V144a4.86,4.86,0,0,1-5.06,5.12h-4.49v7.63a1.11,1.11,0,0,1-1.26,1.26h-3a1.13,1.13,0,0,1-1.29-1.26Zm5.56,7.95h1.92a1.83,1.83,0,0,0,2.1-2v-.62c0-1.42-.79-2-2.07-2h-1.39a.56.56,0,0,0-.56.56Z" transform="translate(-45.3 -37.02)"/><path class="cls-1" d="M239.27,79.28h5.24c.85,0,1.26.44,1.26,1.32v2a1.15,1.15,0,0,1-1.29,1.29h-5.21v8a1.12,1.12,0,0,1-1.19,1.2H234.9a1.12,1.12,0,0,1-1.19-1.2V71.55a1.12,1.12,0,0,1,1.19-1.19h11.25a1.1,1.1,0,0,1,1.19,1.16v2.2a1.1,1.1,0,0,1-1.19,1.19h-6.32c-.37,0-.56.19-.56.6Z" transform="translate(-45.3 -37.02)"/><path class="cls-1" d="M250,71.55a1.13,1.13,0,0,1,1.2-1.19h3.14a1.14,1.14,0,0,1,1.22,1.19V86.44a1.85,1.85,0,0,0,2,2h1a1.86,1.86,0,0,0,2-2V71.55a1.12,1.12,0,0,1,1.19-1.19h3.14a1.12,1.12,0,0,1,1.19,1.19V87.92A4.84,4.84,0,0,1,261,93H255.1A4.88,4.88,0,0,1,250,87.92Z" transform="translate(-45.3 -37.02)"/><path class="cls-1" d="M281.36,86V71.62a1.11,1.11,0,0,1,1.26-1.26h2.61a1.1,1.1,0,0,1,1.25,1.26V91.78A1.1,1.1,0,0,1,285.23,93H280.3a1.25,1.25,0,0,1-1.29-1L275,77.43V91.78A1.11,1.11,0,0,1,273.7,93h-2.61a1.1,1.1,0,0,1-1.25-1.26V71.62a1.1,1.1,0,0,1,1.25-1.26H276a1.27,1.27,0,0,1,1.35.94Z" transform="translate(-45.3 -37.02)"/><path class="cls-1" d="M301.22,70.36a4.87,4.87,0,0,1,5.08,5.06v12.5A4.87,4.87,0,0,1,301.22,93h-9.65a1.16,1.16,0,0,1-1.32-1.29V71.65a1.15,1.15,0,0,1,1.29-1.29Zm-4.87,4.55c-.35,0-.54.19-.54.6V87.89c0,.4.19.59.54.59h2.29a1.93,1.93,0,0,0,2.11-2.13v-9.3a1.9,1.9,0,0,0-2.05-2.14Z" transform="translate(-45.3 -37.02)"/><path class="cls-1" d="M320.94,70.36a1.15,1.15,0,0,1,1.17.94l4.55,20.39A1.07,1.07,0,0,1,325.59,93h-3.33a1.08,1.08,0,0,1-1.13-1l-.56-2.67a.58.58,0,0,0-.6-.5h-4.9a.51.51,0,0,0-.53.47l-.57,2.7a1,1,0,0,1-1.1,1H310a1.11,1.11,0,0,1-1.16-1.32l4.56-20.42a1.1,1.1,0,0,1,1.13-.94ZM317.55,75l-1.95,9.42h3.93Z" transform="translate(-45.3 -37.02)"/><path class="cls-1" d="M329.18,75.45a4.9,4.9,0,0,1,5.08-5.09h7.54a1.15,1.15,0,0,1,1.29,1.29v2a1.15,1.15,0,0,1-1.32,1.28h-5a1.88,1.88,0,0,0-2,2.14v9.3a1.92,1.92,0,0,0,2.1,2.13h5a1.13,1.13,0,0,1,1.29,1.26v2A1.16,1.16,0,0,1,341.77,93h-7.51a4.87,4.87,0,0,1-5.08-5.12Z" transform="translate(-45.3 -37.02)"/><path class="cls-1" d="M349.85,71.62a1.1,1.1,0,0,1,1.25-1.26h3a1.1,1.1,0,0,1,1.25,1.26V89A3.77,3.77,0,0,1,351.29,93h-5.46a1.15,1.15,0,0,1-1.29-1.29v-2a1.15,1.15,0,0,1,1.29-1.29h2a1.76,1.76,0,0,0,2-2Z" transform="translate(-45.3 -37.02)"/><path class="cls-1" d="M370.33,70.36a1.14,1.14,0,0,1,1.16.94L376,91.69A1.07,1.07,0,0,1,375,93h-3.32a1.09,1.09,0,0,1-1.14-1L370,89.42a.58.58,0,0,0-.6-.5h-4.9a.51.51,0,0,0-.53.47l-.57,2.7a1,1,0,0,1-1.1,1H359.4a1.11,1.11,0,0,1-1.17-1.32l4.56-20.42a1.1,1.1,0,0,1,1.13-.94ZM366.93,75,365,84.37h3.92Z" transform="translate(-45.3 -37.02)"/></svg>