<svg id="Warstwa_1" data-name="Warstwa 1" xmlns="http://www.w3.org/2000/svg" viewBox="0 0 330.77 154.13"><defs><style>.cls-1{fill:#fff;}</style></defs><path class="cls-1" d="M122.36,37a77.07,77.07,0,1,0,77.06,77.07A77.07,77.07,0,0,0,122.36,37Zm41.2,113.36a4.9,4.9,0,0,1-8.37,3.46L91,89.63v53l26.49-12.37V120.13l9.8,9.8v3.49a4.91,4.91,0,0,1-2.82,4.44l-36.29,17-.11,0-.16.06a3.9,3.9,0,0,1-.8.25l-.07,0a5,5,0,0,1-.94.09,5.14,5.14,0,0,1-.87-.09l-.25-.05a4.88,4.88,0,0,1-.65-.2l-.18-.07a4.63,4.63,0,0,1-.73-.39l-.17-.13c-.18-.13-.35-.27-.52-.42s-.11-.1-.16-.16a5.68,5.68,0,0,1-.49-.59.35.35,0,0,1,0-.08,4.56,4.56,0,0,1-.37-.65l0-.07a3.31,3.31,0,0,1-.18-.53,3.24,3.24,0,0,1-.13-.41c0-.14,0-.29-.06-.43s0-.37-.06-.55V77.79a5.2,5.2,0,0,1,.09-1,3.24,3.24,0,0,1,.13-.41,2.88,2.88,0,0,1,.15-.5c.07-.16.16-.31.24-.46s.13-.26.21-.39a6,6,0,0,1,.6-.73h0l0,0a4.52,4.52,0,0,1,.72-.59,2.82,2.82,0,0,1,.38-.21,4,4,0,0,1,.46-.24,4.66,4.66,0,0,1,.49-.16c.14,0,.28-.09.43-.12a5.63,5.63,0,0,1,.92-.1h.08A5.75,5.75,0,0,1,87,73c.15,0,.29.08.43.12a3.86,3.86,0,0,1,.48.16,3.45,3.45,0,0,1,.47.24c.13.07.26.13.38.21a4.6,4.6,0,0,1,.73.59l0,0,64.21,64.21V85.91L127.26,99.82v8.23l-9.8-9.81V96.86a4.89,4.89,0,0,1,2.62-4.34l36.29-19.07a4.87,4.87,0,0,1,7.16,4.45,1.81,1.81,0,0,1,0,.23Z" transform="translate(-45.3 -37.02)"/><path class="cls-1" d="M249.1,102.83h-2.61a1.1,1.1,0,0,0-1.25,1.26v14.35l-4.05-14.67a1.29,1.29,0,0,0-1.35-.94H235a1.11,1.11,0,0,0-1.26,1.26v20.16a1.11,1.11,0,0,0,1.26,1.26h2.6a1.11,1.11,0,0,0,1.26-1.26V109.9l4,14.67a1.26,1.26,0,0,0,1.29.94h4.93a1.11,1.11,0,0,0,1.26-1.26V104.09A1.11,1.11,0,0,0,249.1,102.83Z" transform="translate(-45.3 -37.02)"/><path class="cls-1" d="M258.94,102.83a4.91,4.91,0,0,0-5.12,5.09v12.47a4.87,4.87,0,0,0,5.08,5.12h5.88a4.84,4.84,0,0,0,5.09-5.12V107.92a4.89,4.89,0,0,0-5.09-5.09Zm5.4,16.08a1.85,1.85,0,0,1-2,2h-1a1.84,1.84,0,0,1-2-2v-9.48a1.8,1.8,0,0,1,2-2h1a1.83,1.83,0,0,1,2,2Z" transform="translate(-45.3 -37.02)"/><path class="cls-1" d="M297.26,102.83h-3.21a1.15,1.15,0,0,0-1.16,1.13l-2,16.34-2.64-16.4a1.14,1.14,0,0,0-1.09-1.07h-3.65a1.18,1.18,0,0,0-1.1,1l-2.64,16.46-2-16.37c-.09-.63-.34-1.13-1.13-1.13h-3.2a.93.93,0,0,0-1,1.13L275,124.38a1.16,1.16,0,0,0,1.13,1.13h6.13a1.09,1.09,0,0,0,1.09-1l2-12.91,1.95,12.91a1.12,1.12,0,0,0,1.1,1h6.12a1.2,1.2,0,0,0,1.17-1.13l2.6-20.42A1,1,0,0,0,297.26,102.83Z" transform="translate(-45.3 -37.02)"/><path class="cls-1" d="M313.47,103.77a1.14,1.14,0,0,0-1.16-.94H305.9a1.1,1.1,0,0,0-1.13.94l-4.56,20.42a1.11,1.11,0,0,0,1.17,1.32h2.85a1,1,0,0,0,1.1-.94l.57-2.7a.51.51,0,0,1,.53-.48h4.9a.59.59,0,0,1,.6.51l.56,2.67a1.09,1.09,0,0,0,1.14.94H317a1.07,1.07,0,0,0,1.07-1.35ZM307,116.84l1.94-9.42,2,9.42Z" transform="translate(-45.3 -37.02)"/><path class="cls-1" d="M248.57,135.3h-3.14a1.13,1.13,0,0,0-1.2,1.2v14.89a1.86,1.86,0,0,1-2,2h-1a1.85,1.85,0,0,1-2-2V136.5a1.15,1.15,0,0,0-1.22-1.2h-3.14a1.13,1.13,0,0,0-1.2,1.2v16.36A4.87,4.87,0,0,0,238.8,158h5.87a4.84,4.84,0,0,0,5.09-5.12V136.5A1.13,1.13,0,0,0,248.57,135.3Z" transform="translate(-45.3 -37.02)"/><path class="cls-1" d="M265.88,136.25a1.14,1.14,0,0,0-1.16-.95h-6.41a1.1,1.1,0,0,0-1.13.95l-4.56,20.41a1.11,1.11,0,0,0,1.17,1.32h2.85a1,1,0,0,0,1.1-.94l.57-2.7a.51.51,0,0,1,.53-.47h4.9a.58.58,0,0,1,.6.5l.56,2.67A1.07,1.07,0,0,0,266,158h3.33a1.07,1.07,0,0,0,1.07-1.35Zm-6.5,13.06,1.94-9.42,2,9.42Z" transform="translate(-45.3 -37.02)"/><path class="cls-1" d="M283.28,135.3h-8.76a1.11,1.11,0,0,0-1.26,1.26v20.16a1.13,1.13,0,0,0,1.29,1.26h3a1.11,1.11,0,0,0,1.26-1.26v-7.63h4.49a4.86,4.86,0,0,0,5.06-5.12v-3.61A4.88,4.88,0,0,0,283.28,135.3Zm-.44,7.17a1.83,1.83,0,0,1-2.1,2h-1.92v-4.09a.56.56,0,0,1,.57-.56h1.38c1.29,0,2.07.56,2.07,2Z" transform="translate(-45.3 -37.02)"/><path class="cls-1" d="M234.91,93h3.17a1.12,1.12,0,0,0,1.19-1.2v-8h5.21a1.15,1.15,0,0,0,1.29-1.29v-2c0-.88-.41-1.32-1.25-1.32h-5.25V75.51c0-.41.19-.6.57-.6h6.31a1.1,1.1,0,0,0,1.19-1.19v-2.2a1.1,1.1,0,0,0-1.19-1.16H234.91a1.12,1.12,0,0,0-1.2,1.19V91.84A1.12,1.12,0,0,0,234.91,93Z" transform="translate(-45.3 -37.02)"/><path class="cls-1" d="M261,93a4.83,4.83,0,0,0,5.08-5.12V71.55a1.12,1.12,0,0,0-1.19-1.19h-3.14a1.12,1.12,0,0,0-1.19,1.19V86.44a1.86,1.86,0,0,1-2,2h-1a1.85,1.85,0,0,1-2-2V71.55a1.14,1.14,0,0,0-1.22-1.19h-3.14a1.13,1.13,0,0,0-1.2,1.19V87.92A4.88,4.88,0,0,0,255.1,93Z" transform="translate(-45.3 -37.02)"/><path class="cls-1" d="M275,91.78V77.43L279,92.09a1.25,1.25,0,0,0,1.29,1h4.93a1.1,1.1,0,0,0,1.25-1.26V71.62a1.1,1.1,0,0,0-1.25-1.26h-2.61a1.11,1.11,0,0,0-1.26,1.26V86L277.31,71.3a1.27,1.27,0,0,0-1.35-.94h-4.87a1.1,1.1,0,0,0-1.25,1.26V91.78A1.1,1.1,0,0,0,271.09,93h2.61A1.11,1.11,0,0,0,275,91.78Z" transform="translate(-45.3 -37.02)"/><path class="cls-1" d="M291.57,93h9.65a4.88,4.88,0,0,0,5.09-5.12V75.42a4.88,4.88,0,0,0-5.09-5.06h-9.68a1.15,1.15,0,0,0-1.28,1.29v20.1A1.15,1.15,0,0,0,291.57,93Zm4.25-17.53c0-.41.18-.6.53-.6h2.35a1.9,1.9,0,0,1,2.05,2.14v9.3a1.93,1.93,0,0,1-2.11,2.13h-2.29c-.35,0-.53-.19-.53-.59Z" transform="translate(-45.3 -37.02)"/><path class="cls-1" d="M322.11,71.3a1.14,1.14,0,0,0-1.16-.94h-6.41a1.1,1.1,0,0,0-1.13.94l-4.56,20.42A1.11,1.11,0,0,0,310,93h2.85a1,1,0,0,0,1.1-1l.57-2.7a.51.51,0,0,1,.53-.47H320a.58.58,0,0,1,.6.51l.56,2.66a1.08,1.08,0,0,0,1.13,1h3.33a1.07,1.07,0,0,0,1.07-1.35Zm-6.5,13.07L317.55,75l2,9.42Z" transform="translate(-45.3 -37.02)"/><path class="cls-1" d="M341.8,70.36h-7.53a4.9,4.9,0,0,0-5.09,5.09V87.92A4.87,4.87,0,0,0,334.27,93h7.5a1.16,1.16,0,0,0,1.32-1.29v-2a1.13,1.13,0,0,0-1.29-1.26h-5a1.92,1.92,0,0,1-2.1-2.13v-9.3a1.88,1.88,0,0,1,2-2.14h5a1.15,1.15,0,0,0,1.32-1.28v-2A1.15,1.15,0,0,0,341.8,70.36Z" transform="translate(-45.3 -37.02)"/><path class="cls-1" d="M354.12,70.36h-3a1.1,1.1,0,0,0-1.25,1.26V86.47a1.76,1.76,0,0,1-2,2h-2a1.15,1.15,0,0,0-1.29,1.29v2A1.15,1.15,0,0,0,345.83,93h5.46A3.77,3.77,0,0,0,355.38,89V71.62A1.11,1.11,0,0,0,354.12,70.36Z" transform="translate(-45.3 -37.02)"/><path class="cls-1" d="M376,91.69,371.49,71.3a1.14,1.14,0,0,0-1.16-.94h-6.41a1.1,1.1,0,0,0-1.13.94l-4.55,20.42A1.11,1.11,0,0,0,359.4,93h2.86a1.05,1.05,0,0,0,1.1-1l.56-2.7a.51.51,0,0,1,.53-.47h4.9a.58.58,0,0,1,.6.51l.57,2.66a1.07,1.07,0,0,0,1.13,1H375A1.07,1.07,0,0,0,376,91.69ZM365,84.37,366.94,75l2,9.42Z" transform="translate(-45.3 -37.02)"/></svg>